<?xml version="1.0" standalone="no"?><!DOCTYPE svg PUBLIC "-//W3C//DTD SVG 1.1//EN" "http://www.w3.org/Graphics/SVG/1.1/DTD/svg11.dtd"><svg t="1653832071839" class="icon" viewBox="0 0 1024 1024" version="1.1" xmlns="http://www.w3.org/2000/svg" p-id="3438" xmlns:xlink="http://www.w3.org/1999/xlink" width="200" height="200"><defs><style type="text/css">@font-face { font-family: feedback-iconfont; src: url("//at.alicdn.com/t/font_1031158_u69w8yhxdu.woff2?t=1630033759944") format("woff2"), url("//at.alicdn.com/t/font_1031158_u69w8yhxdu.woff?t=1630033759944") format("woff"), url("//at.alicdn.com/t/font_1031158_u69w8yhxdu.ttf?t=1630033759944") format("truetype"); }
</style></defs><path d="M412.032 592l-44.992 46.016a197.376 197.376 0 0 1-35.008-59.008A189.248 189.248 0 0 1 320 512V256c1.344-54.656 20.032-100.032 56-136C412.032 84.032 457.28 65.344 512 64c54.72 1.344 100.032 20.032 136 56 36.032 35.968 54.656 81.28 56 136v44.032l-64 64V256c-0.64-36.032-13.12-66.176-37.504-90.496C578.176 141.184 548.032 128.704 512 128c-35.968 0.64-66.176 13.184-90.496 37.504-24.32 24.32-36.8 54.528-37.504 90.496v256c0.64 30.72 9.984 57.344 28.032 80z m51.968 39.04a126.656 126.656 0 0 0 119.488-12.992A127.68 127.68 0 0 0 640.128 512v-56.96l64-64V512a189.632 189.632 0 0 1-96 166.016 187.776 187.776 0 0 1-95.488 26.048c-33.664 0-65.856-8.32-96.512-25.024l48-48z m-148.992 148.992l46.08-46.08A222.144 222.144 0 0 0 480 768h64c63.36-1.344 116.16-23.168 158.464-65.536 42.368-42.24 64.192-95.104 65.536-158.464V512c0-9.344 2.944-17.024 8.96-23.04a31.168 31.168 0 0 1 23.04-8.96c9.344 0 17.024 3.008 23.04 8.96 5.952 6.016 8.96 13.696 8.96 23.04v32c-2.048 81.344-30.208 149.12-84.48 203.52-54.4 54.272-122.24 82.432-203.52 84.48v64h64c9.344 0 17.024 3.008 23.04 8.96 5.952 6.016 8.96 13.696 8.96 23.04a31.168 31.168 0 0 1-8.96 23.04 31.168 31.168 0 0 1-23.04 8.96h-192a31.168 31.168 0 0 1-23.04-8.96 31.168 31.168 0 0 1-8.96-23.04c0-9.344 3.008-17.024 8.96-23.04a31.168 31.168 0 0 1 23.04-8.96h64v-64c-30.72 0-60.032-4.48-88-13.504a278.4 278.4 0 0 1-76.992-38.464z m-48-42.048A286.272 286.272 0 0 1 192 544V512c0-9.344 3.008-16.96 8.96-22.976a31.168 31.168 0 0 1 23.04-8.96c9.344 0 17.024 2.944 23.04 8.96 5.952 6.016 8.96 13.632 8.96 23.04v32c0 28.608 4.992 55.488 15.04 80.512 9.984 24.96 23.68 47.488 40.96 67.456l-44.992 45.952zM151.04 859.008a32.832 32.832 0 0 1-22.528 8.96 30.272 30.272 0 0 1-22.016-9.472 32 32 0 0 1-9.984-22.016 30.848 30.848 0 0 1 8.512-22.464l704-709.056a32.832 32.832 0 0 1 22.464-8.96c8.32 0 15.68 3.2 22.016 9.536a32.512 32.512 0 0 1 1.536 45.44l-704 708.032z" fill="#000000" p-id="3439"></path></svg>