<?xml version="1.0" standalone="no"?><!DOCTYPE svg PUBLIC "-//W3C//DTD SVG 1.1//EN" "http://www.w3.org/Graphics/SVG/1.1/DTD/svg11.dtd"><svg t="1653835107340" class="icon" viewBox="0 0 1024 1024" version="1.1" xmlns="http://www.w3.org/2000/svg" p-id="14239" xmlns:xlink="http://www.w3.org/1999/xlink" width="200" height="200"><defs><style type="text/css">@font-face { font-family: feedback-iconfont; src: url("//at.alicdn.com/t/font_1031158_u69w8yhxdu.woff2?t=1630033759944") format("woff2"), url("//at.alicdn.com/t/font_1031158_u69w8yhxdu.woff?t=1630033759944") format("woff"), url("//at.alicdn.com/t/font_1031158_u69w8yhxdu.ttf?t=1630033759944") format("truetype"); }
</style></defs><path d="M912 208H427.872l-50.368-94.176A63.936 63.936 0 0 0 321.056 80H112c-35.296 0-64 28.704-64 64v736c0 35.296 28.704 64 64 64h800c35.296 0 64-28.704 64-64v-608c0-35.296-28.704-64-64-64z m-800-64h209.056l68.448 128H912v97.984c-0.416 0-0.8-0.128-1.216-0.128H113.248c-0.416 0-0.8 0.128-1.248 0.128V144z m0 736v-96l1.248-350.144 798.752 1.216V784h0.064v96H112z" p-id="14240"></path></svg>