<?xml version="1.0" standalone="no"?><!DOCTYPE svg PUBLIC "-//W3C//DTD SVG 1.1//EN" "http://www.w3.org/Graphics/SVG/1.1/DTD/svg11.dtd"><svg t="1654332400828" class="icon" viewBox="0 0 1024 1024" version="1.1" xmlns="http://www.w3.org/2000/svg" p-id="1606" xmlns:xlink="http://www.w3.org/1999/xlink" width="200" height="200"><defs><style type="text/css">@font-face { font-family: feedback-iconfont; src: url("//at.alicdn.com/t/font_1031158_u69w8yhxdu.woff2?t=1630033759944") format("woff2"), url("//at.alicdn.com/t/font_1031158_u69w8yhxdu.woff?t=1630033759944") format("woff"), url("//at.alicdn.com/t/font_1031158_u69w8yhxdu.ttf?t=1630033759944") format("truetype"); }
</style></defs><path d="M488.719865 0 488.719865 46.560269 442.159596 46.560269 442.159596 93.120538 581.840404 93.120538 581.840404 46.560269 535.280135 46.560269 537.701269 0Z" p-id="1607"></path><path d="M139.517847 884.645114l331.602237 0-97.916246 139.354886 46.979312 0L518.099395 884.645114l18.577547 0 97.869686 139.354886 46.979312 0L583.702814 884.645114l300.779339 0c0 0 23.280135 4.143864 23.280135-21.184922C907.762288 838.084845 884.482153 838.084845 884.482153 838.084845l-744.964306 0c0 0-23.280135 0-23.280135 25.328786C116.237712 888.788978 139.517847 884.645114 139.517847 884.645114z" p-id="1608"></path><path d="M116.237712 232.801346l0 465.602691c0 93.120538 93.120538 93.120538 93.120538 93.120538l605.283499 0c0 0 93.120538 0 93.120538-93.120538L907.762288 232.801346c0-93.120538-93.120538-93.120538-93.120538-93.120538L209.358251 139.680807C209.358251 139.680807 116.237712 139.680807 116.237712 232.801346zM861.202019 232.801346l0 465.602691c0 46.560269-46.560269 46.560269-46.560269 46.560269L209.358251 744.964306c0 0-46.560269 0-46.560269-46.560269L162.797981 232.801346c0-46.560269 46.560269-46.560269 46.560269-46.560269l605.283499 0C814.641749 186.241077 861.202019 186.241077 861.202019 232.801346z" p-id="1609"></path></svg>