<?xml version="1.0" standalone="no"?><!DOCTYPE svg PUBLIC "-//W3C//DTD SVG 1.1//EN" "http://www.w3.org/Graphics/SVG/1.1/DTD/svg11.dtd"><svg t="1653835083119" class="icon" viewBox="0 0 1024 1024" version="1.1" xmlns="http://www.w3.org/2000/svg" p-id="13370" xmlns:xlink="http://www.w3.org/1999/xlink" width="200" height="200"><defs><style type="text/css">@font-face { font-family: feedback-iconfont; src: url("//at.alicdn.com/t/font_1031158_u69w8yhxdu.woff2?t=1630033759944") format("woff2"), url("//at.alicdn.com/t/font_1031158_u69w8yhxdu.woff?t=1630033759944") format("woff"), url("//at.alicdn.com/t/font_1031158_u69w8yhxdu.ttf?t=1630033759944") format("truetype"); }
</style></defs><path d="M800 330.9V256c0-35.3-28.7-64-64-64H64c-35.3 0-64 28.7-64 64v512c0 35.3 28.7 64 64 64h672c35.3 0 64-28.7 64-64v-74.9c0-11.6 11.9-19.3 22.5-14.6L934 728c42.3 18.8 90-12.2 90-58.5v-315c0-46.3-47.7-77.3-90-58.5l-111.5 49.6c-10.6 4.7-22.5-3.1-22.5-14.7zM720 768H80c-8.8 0-16-7.2-16-16V272c0-8.8 7.2-16 16-16h640c8.8 0 16 7.2 16 16v480c0 8.8-7.2 16-16 16z m217.5-108.5l-128-56.9c-5.8-2.6-9.5-8.3-9.5-14.6V436c0-6.3 3.7-12.1 9.5-14.6l128-56.9c10.6-4.7 22.5 3 22.5 14.6v265.8c0 11.6-11.9 19.3-22.5 14.6z" p-id="13371"></path><path d="M332.4 445.4L447.9 512l-115.4 66.6V445.4m-16-75.8c-25.1 0-48.1 20-48.1 48.1v188.7c0 28 23 48.1 48.1 48.1 8 0 16.2-2 23.9-6.5l163.4-94.4c32-18.5 32-64.7 0-83.1l-163.4-94.4c-7.7-4.5-15.9-6.5-23.9-6.5z" p-id="13372"></path></svg>