<?xml version="1.0" standalone="no"?><!DOCTYPE svg PUBLIC "-//W3C//DTD SVG 1.1//EN" "http://www.w3.org/Graphics/SVG/1.1/DTD/svg11.dtd"><svg t="1653837306808" class="icon" viewBox="0 0 1024 1024" version="1.1" xmlns="http://www.w3.org/2000/svg" p-id="2114" xmlns:xlink="http://www.w3.org/1999/xlink" width="200" height="200"><defs><style type="text/css">@font-face { font-family: feedback-iconfont; src: url("//at.alicdn.com/t/font_1031158_u69w8yhxdu.woff2?t=1630033759944") format("woff2"), url("//at.alicdn.com/t/font_1031158_u69w8yhxdu.woff?t=1630033759944") format("woff"), url("//at.alicdn.com/t/font_1031158_u69w8yhxdu.ttf?t=1630033759944") format("truetype"); }
</style></defs><path d="M310.857143 530.285714c30.2848 0 54.857143-24.572343 54.857143-54.857143s-24.572343-54.857143-54.857143-54.857143-54.857143 24.572343-54.857143 54.857143S280.572343 530.285714 310.857143 530.285714z" p-id="2115"></path><path d="M512 530.285714c30.2848 0 54.857143-24.572343 54.857143-54.857143s-24.572343-54.857143-54.857143-54.857143-54.857143 24.572343-54.857143 54.857143S481.7152 530.285714 512 530.285714z" p-id="2116"></path><path d="M713.142857 530.285714c30.2848 0 54.857143-24.572343 54.857143-54.857143s-24.572343-54.857143-54.857143-54.857143-54.857143 24.572343-54.857143 54.857143S682.858057 530.285714 713.142857 530.285714z" p-id="2117"></path><path d="M969.142857 109.714286 54.857143 109.714286c-20.214857 0-36.571429 16.374857-36.571429 36.571429l0 658.285714c0 20.214857 16.356571 36.571429 36.571429 36.571429l329.142857 0 128 182.857143 128-182.857143 329.142857 0c20.214857 0 36.571429-16.356571 36.571429-36.571429L1005.714286 146.285714C1005.714286 126.089143 989.357714 109.714286 969.142857 109.714286zM932.571429 768 601.929143 768 512 896.464457 422.072686 768 91.428571 768 91.428571 182.857143l841.142857 0L932.571429 768z" p-id="2118"></path></svg>