<?xml version="1.0" standalone="no"?><!DOCTYPE svg PUBLIC "-//W3C//DTD SVG 1.1//EN" "http://www.w3.org/Graphics/SVG/1.1/DTD/svg11.dtd"><svg t="1653832103040" class="icon" viewBox="0 0 1024 1024" version="1.1" xmlns="http://www.w3.org/2000/svg" p-id="4276" xmlns:xlink="http://www.w3.org/1999/xlink" width="200" height="200"><defs><style type="text/css">@font-face { font-family: feedback-iconfont; src: url("//at.alicdn.com/t/font_1031158_u69w8yhxdu.woff2?t=1630033759944") format("woff2"), url("//at.alicdn.com/t/font_1031158_u69w8yhxdu.woff?t=1630033759944") format("woff"), url("//at.alicdn.com/t/font_1031158_u69w8yhxdu.ttf?t=1630033759944") format("truetype"); }
</style></defs><path d="M106.912 152.096A32 32 0 1 1 149.12 103.904l768 672a32 32 0 0 1-42.176 48.192l-768-672z" p-id="4277"></path><path d="M732.672 462.4l-37.056-52.16 172.416-122.432a64 64 0 0 1 101.056 51.648l2.624 302.592a63.904 63.904 0 0 1-20.16 47.2l-43.84-46.656-2.624-302.592-172.416 122.432z m-34.72-54.016l35.616 53.184c-10.752 7.2-24.32 12.16-37.216 12.16a64 64 0 0 1-64-64V288a32 32 0 0 0-32-32h-205.952V192h205.952a96 96 0 0 1 96 96v121.28c0.416-0.224 1.088-0.544 1.6-0.896zM632.32 608h64v97.376a96 96 0 0 1-96 96H144a96 96 0 0 1-96-96V288a96 96 0 0 1 96-96h96v64h-96a32 32 0 0 0-32 32v417.376a32 32 0 0 0 32 32h456.32a32 32 0 0 0 32-32V608z" p-id="4278"></path></svg>