<?xml version="1.0" standalone="no"?><!DOCTYPE svg PUBLIC "-//W3C//DTD SVG 1.1//EN" "http://www.w3.org/Graphics/SVG/1.1/DTD/svg11.dtd"><svg t="1653230713166" class="icon" viewBox="0 0 1024 1024" version="1.1" xmlns="http://www.w3.org/2000/svg" p-id="12428" xmlns:xlink="http://www.w3.org/1999/xlink" width="200" height="200"><defs><style type="text/css">@font-face { font-family: feedback-iconfont; src: url("//at.alicdn.com/t/font_1031158_u69w8yhxdu.woff2?t=1630033759944") format("woff2"), url("//at.alicdn.com/t/font_1031158_u69w8yhxdu.woff?t=1630033759944") format("woff"), url("//at.alicdn.com/t/font_1031158_u69w8yhxdu.ttf?t=1630033759944") format("truetype"); }
</style></defs><path d="M665.87 814.94h-499.7c-84.88 0-153.94-69.06-153.94-153.94V253.08c0-84.88 69.06-153.94 153.94-153.94h499.7c84.88 0 153.94 69.06 153.94 153.94V661c0.01 84.88-69.05 153.94-153.94 153.94zM166.18 154.86c-54.16 0-98.23 44.06-98.23 98.23V661c0 54.16 44.06 98.23 98.23 98.23h499.7c54.16 0 98.23-44.06 98.23-98.23V253.08c0-54.16-44.06-98.23-98.23-98.23h-499.7z" p-id="12429"></path><path d="M925.5 669.78c-15.52 0-31.02-4.53-44.91-13.53L764.1 580.78V333.3l116.49-75.46c25.8-16.71 57.15-18.02 83.86-3.5 32.02 17.41 51.91 53.52 51.91 94.25V565.5c0 40.73-19.89 76.84-51.91 94.25-12.33 6.7-25.65 10.03-38.95 10.03zM819.82 550.49l91.07 58.99c8.89 5.76 17.96 6.2 26.95 1.31 13.85-7.53 22.81-25.31 22.81-45.3v-216.9c0-19.99-8.95-37.77-22.81-45.3-8.99-4.89-18.06-4.45-26.95 1.31l-91.07 58.99v186.9zM312.03 626.07c-4.81 0-9.62-1.24-13.93-3.73a27.86 27.86 0 0 1-13.93-24.13V315.88c0-9.95 5.31-19.15 13.93-24.13a27.844 27.844 0 0 1 27.86 0l244.51 141.17c8.62 4.98 13.93 14.17 13.93 24.13s-5.31 19.15-13.93 24.13L325.95 622.33c-4.3 2.49-9.12 3.74-13.92 3.74z m27.85-261.94v185.83l160.94-92.92-160.94-92.91zM152.56 974.2c-4.73 0-9.52-1.2-13.9-3.74-13.32-7.69-17.89-24.73-10.2-38.05l89.04-154.22c7.69-13.32 24.73-17.89 38.05-10.2 13.32 7.69 17.89 24.73 10.2 38.05l-89.04 154.22c-5.16 8.94-14.52 13.94-24.15 13.94zM716 974.2c-9.63 0-18.99-5-24.15-13.93l-89.04-154.22c-7.69-13.32-3.13-30.36 10.2-38.05 13.33-7.69 30.36-3.13 38.05 10.2l89.04 154.2c7.69 13.32 3.13 30.36-10.2 38.05a27.633 27.633 0 0 1-13.9 3.75z" p-id="12430"></path></svg>