<?xml version="1.0" standalone="no"?><!DOCTYPE svg PUBLIC "-//W3C//DTD SVG 1.1//EN" "http://www.w3.org/Graphics/SVG/1.1/DTD/svg11.dtd"><svg t="1654998738094" class="icon" viewBox="0 0 1024 1024" version="1.1" xmlns="http://www.w3.org/2000/svg" p-id="2087" xmlns:xlink="http://www.w3.org/1999/xlink" width="200" height="200"><defs><style type="text/css">@font-face { font-family: feedback-iconfont; src: url("//at.alicdn.com/t/font_1031158_u69w8yhxdu.woff2?t=1630033759944") format("woff2"), url("//at.alicdn.com/t/font_1031158_u69w8yhxdu.woff?t=1630033759944") format("woff"), url("//at.alicdn.com/t/font_1031158_u69w8yhxdu.ttf?t=1630033759944") format("truetype"); }
</style></defs><path d="M695.04 194.32H98.08c-18.32 0-33.16-14.85-33.16-33.16 0-18.32 14.85-33.16 33.16-33.16h596.96c18.32 0 33.16 14.85 33.16 33.16 0 18.31-14.84 33.16-33.16 33.16zM298.97 393.3H96.19c-17.27 0-31.27-14-31.27-31.27v-3.79c0-17.27 14-31.27 31.27-31.27h202.78c17.27 0 31.27 14 31.27 31.27v3.79c-0.01 17.28-14.01 31.27-31.27 31.27zM230.74 592.29H98.08c-18.32 0-33.16-14.85-33.16-33.16 0-18.32 14.85-33.16 33.16-33.16h132.66c18.32 0 33.16 14.85 33.16 33.16 0.01 18.31-14.84 33.16-33.16 33.16zM230.74 791.28H98.08c-18.32 0-33.16-14.85-33.16-33.16 0-18.32 14.85-33.16 33.16-33.16h132.66c18.32 0 33.16 14.85 33.16 33.16 0.01 18.31-14.84 33.16-33.16 33.16zM728.2 691.78H595.55c-18.32 0-33.16-14.85-33.16-33.16 0-18.32 14.85-33.16 33.16-33.16H728.2c18.32 0 33.16 14.85 33.16 33.16 0.01 18.31-14.84 33.16-33.16 33.16z" p-id="2088"></path><path d="M562.38 658.62V525.96c0-18.32 14.85-33.16 33.16-33.16 18.32 0 33.16 14.85 33.16 33.16v132.66c0 18.32-14.85 33.16-33.16 33.16-18.31 0-33.16-14.85-33.16-33.16z" p-id="2089"></path><path d="M960.35 625.45c0 183.16-148.48 331.64-331.64 331.64S297.07 808.62 297.07 625.45s148.48-331.64 331.64-331.64 331.64 148.48 331.64 331.64zM628.71 360.14c-146.53 0-265.31 118.79-265.31 265.31s118.79 265.31 265.31 265.31 265.31-118.79 265.31-265.31-118.78-265.31-265.31-265.31z" p-id="2090"></path></svg>