<?xml version="1.0" standalone="no"?><!DOCTYPE svg PUBLIC "-//W3C//DTD SVG 1.1//EN" "http://www.w3.org/Graphics/SVG/1.1/DTD/svg11.dtd"><svg t="1653229337373" class="icon" viewBox="0 0 1024 1024" version="1.1" xmlns="http://www.w3.org/2000/svg" p-id="3868" xmlns:xlink="http://www.w3.org/1999/xlink" width="200" height="200"><defs><style type="text/css">@font-face { font-family: feedback-iconfont; src: url("//at.alicdn.com/t/font_1031158_u69w8yhxdu.woff2?t=1630033759944") format("woff2"), url("//at.alicdn.com/t/font_1031158_u69w8yhxdu.woff?t=1630033759944") format("woff"), url("//at.alicdn.com/t/font_1031158_u69w8yhxdu.ttf?t=1630033759944") format("truetype"); }
</style></defs><path d="M264.9 390.1h127.2v127.2H264.9V390.1z m184.7 0h127.2v127.2H449.6V390.1z m184.6 0h127.2v127.2H634.2V390.1z m6.2 44.7M264.9 597.8h127.2V725H264.9V597.8z m184.7 0h127.2V725H449.6V597.8z m184.6 0h127.2V725H634.2V597.8z m6.2 0" p-id="3869"></path><path d="M825 201v626.1H198.8V201H825m10-70H188.8c-33 0-60 27-60 60v646.1c0 33 27 60 60 60H835c33 0 60-27 60-60V191c0-33-27-60-60-60z" p-id="3870"></path><path d="M192.2 201.4h639.2v74H192.2z" p-id="3871"></path><path d="M806.4 226.4v24H217.2v-24h589.2m50-50H167.2v124h689.2v-124z" p-id="3872"></path></svg>