<?xml version="1.0" standalone="no"?><!DOCTYPE svg PUBLIC "-//W3C//DTD SVG 1.1//EN" "http://www.w3.org/Graphics/SVG/1.1/DTD/svg11.dtd"><svg t="1653832064262" class="icon" viewBox="0 0 1024 1024" version="1.1" xmlns="http://www.w3.org/2000/svg" p-id="3293" xmlns:xlink="http://www.w3.org/1999/xlink" width="200" height="200"><defs><style type="text/css">@font-face { font-family: feedback-iconfont; src: url("//at.alicdn.com/t/font_1031158_u69w8yhxdu.woff2?t=1630033759944") format("woff2"), url("//at.alicdn.com/t/font_1031158_u69w8yhxdu.woff?t=1630033759944") format("woff"), url("//at.alicdn.com/t/font_1031158_u69w8yhxdu.ttf?t=1630033759944") format("truetype"); }
</style></defs><path d="M512 128c-36.032 0.64-66.176 13.184-90.496 37.504-24.32 24.32-36.8 54.528-37.504 90.496v256c0.64 36.032 13.184 66.176 37.504 90.496 24.32 24.32 54.528 36.8 90.496 37.504 36.032-0.64 66.176-13.184 90.496-37.504 24.32-24.32 36.8-54.528 37.504-90.496V256c-0.64-36.032-13.184-66.176-37.504-90.496C578.176 141.184 547.968 128.704 512 128z m0-64c54.656 1.344 100.032 20.032 136 56S702.656 201.28 704 256v256c-1.344 54.656-20.032 100.032-56 136S566.72 702.656 512 704c-54.656-1.344-100.032-20.032-136-56S321.344 566.72 320 512V256c1.344-54.656 20.032-100.032 56-136S457.28 65.344 512 64z m-32 832v-64c-81.344-1.984-149.12-30.208-203.52-84.48C222.272 693.12 194.048 625.28 192 544V512c0-9.344 3.008-17.024 8.96-23.04a31.168 31.168 0 0 1 23.04-8.96c9.344 0 17.024 3.008 23.04 8.96 5.952 6.016 8.96 13.696 8.96 23.04v32c1.344 63.36 23.168 116.16 65.536 158.464 42.24 42.368 95.104 64.192 158.464 65.536h64c63.36-1.344 116.16-23.168 158.464-65.536 42.368-42.24 64.192-95.104 65.536-158.464V512c0-9.344 3.008-17.024 8.96-23.04a31.168 31.168 0 0 1 23.04-8.96c9.344 0 17.024 3.008 23.04 8.96 5.952 6.016 8.96 13.696 8.96 23.04v32c-1.984 81.344-30.208 149.12-84.48 203.52-54.4 54.272-122.24 82.432-203.52 84.48v64h64c9.344 0 17.024 3.008 23.04 8.96 5.952 6.016 8.96 13.696 8.96 23.04a31.168 31.168 0 0 1-8.96 23.04 31.168 31.168 0 0 1-23.04 8.96h-192a31.168 31.168 0 0 1-23.04-8.96 31.168 31.168 0 0 1-8.96-23.04c0-9.344 3.008-17.024 8.96-23.04A31.168 31.168 0 0 1 416 896h64z" fill="#000000" p-id="3294"></path></svg>